<svg width="40" height="40" viewBox="0 0 40 40" fill="none" xmlns="http://www.w3.org/2000/svg">
<path fill-rule="evenodd" clip-rule="evenodd" d="M6.875 24.375C5.14911 24.375 3.75 25.7741 3.75 27.5C3.75 29.2259 5.14911 30.625 6.875 30.625C8.60089 30.625 10 29.2259 10 27.5C10 25.7741 8.60089 24.375 6.875 24.375ZM1.25 27.5C1.25 24.3934 3.7684 21.875 6.875 21.875C9.9816 21.875 12.5 24.3934 12.5 27.5C12.5 30.6066 9.9816 33.125 6.875 33.125C3.7684 33.125 1.25 30.6066 1.25 27.5Z" fill="#886CFF"/>
<path fill-rule="evenodd" clip-rule="evenodd" d="M30.3661 5.36612C30.8543 4.87796 31.6457 4.87796 32.1339 5.36612L38.3839 11.6161C38.872 12.1043 38.872 12.8957 38.3839 13.3839L32.1339 19.6339C31.6457 20.122 30.8543 20.122 30.3661 19.6339C29.878 19.1457 29.878 18.3543 30.3661 17.8661L35.7322 12.5L30.3661 7.13388C29.878 6.64573 29.878 5.85427 30.3661 5.36612Z" fill="#886CFF"/>
<path fill-rule="evenodd" clip-rule="evenodd" d="M27.5 13.75C25.8424 13.75 24.2527 14.4085 23.0806 15.5806C21.9085 16.7527 21.25 18.3424 21.25 20C21.25 22.3206 20.3281 24.5462 18.6872 26.1872C17.0462 27.8281 14.8206 28.75 12.5 28.75H11.25C10.5596 28.75 10 28.1904 10 27.5C10 26.8096 10.5596 26.25 11.25 26.25H12.5C14.1576 26.25 15.7473 25.5915 16.9194 24.4194C18.0915 23.2473 18.75 21.6576 18.75 20C18.75 17.6794 19.6719 15.4538 21.3128 13.8128C22.9538 12.1719 25.1794 11.25 27.5 11.25H37.5C38.1904 11.25 38.75 11.8096 38.75 12.5C38.75 13.1904 38.1904 13.75 37.5 13.75H27.5Z" fill="#886CFF"/>
</svg>
